Coordinates
version=1
nRows=13
nColumns=40
inDegrees=yes

Units are S.I. units (second, meters, Newtons, ...)
Angles are in degrees.

endheader
time	pelvis_tilt	pelvis_list	pelvis_rotation	pelvis_tx	pelvis_ty	pelvis_tz	hip_flexion_r	hip_adduction_r	hip_rotation_r	knee_angle_r	knee_angle_r_beta	ankle_angle_r	subtalar_angle_r	mtp_angle_r	hip_flexion_l	hip_adduction_l	hip_rotation_l	knee_angle_l	knee_angle_l_beta	ankle_angle_l	subtalar_angle_l	mtp_angle_l	lumbar_extension	lumbar_bending	lumbar_rotation	arm_flex_r	arm_add_r	arm_rot_r	elbow_flex_r	pro_sup_r	wrist_flex_r	wrist_dev_r	arm_flex_l	arm_add_l	arm_rot_l	elbow_flex_l	pro_sup_l	wrist_flex_l	wrist_dev_l
     52.26250000	     -3.02095722	     -5.84099434	     -2.00104109	      1.04501393	      0.93659826	      0.42595168	     30.28439551	     -2.57008532	     -6.82202200	     46.15219321	     46.15219321	      1.67243089	    -12.80078619	     -1.00571012	     11.66453426	     -6.93300056	     -8.78507866	     20.41045995	     20.41045995	     13.23431715	    -10.41076381	     -1.34803828	    -11.34560137	      4.90399093	      0.43977714	     -2.12968662	    -14.93568584	     -0.22808581	     26.63330792	     46.32120420	      0.00000000	      0.00000000	     15.54307121	    -16.23279900	     -0.92363591	     52.35911890	     45.76371950	      0.00000000	      0.00000000
     52.27585714	     -3.07556003	     -5.83655747	     -2.46658142	      1.04354303	      0.93642006	      0.42665456	     30.29257822	     -2.36764211	     -7.07234309	     42.85758082	     42.85758082	      1.64406390	    -11.80067156	     -1.06491978	     11.28637710	     -7.00162578	     -9.19287285	     20.29919866	     20.29919866	     13.45683862	    -10.42130667	     -1.47975720	    -11.45100056	      4.89984354	      0.51618666	     -2.81883486	    -15.01760744	     -0.71565643	     26.44831734	     46.36027095	      0.00000000	      0.00000000	     16.23446195	    -16.52845056	     -1.05507481	     54.08903844	     45.81714019	      0.00000000	      0.00000000
     52.28921429	     -3.28804432	     -5.86340766	     -2.85295099	      1.04201486	      0.93609224	      0.42739074	     30.29119972	     -2.12977106	     -7.47876774	     39.28849728	     39.28849728	      1.59957571	    -10.65625950	     -0.85302030	     11.09681167	     -7.09863153	     -9.50048536	     20.16159673	     20.16159673	     13.56519191	    -10.45577570	     -1.54201022	    -11.37886599	      5.01291433	      0.42394695	     -3.36419139	    -15.07261761	     -1.00018189	     26.33229130	     46.38189443	      0.00000000	      0.00000000	     16.84654849	    -16.81276951	     -1.17038742	     55.24523348	     45.85470431	      0.00000000	      0.00000000
     52.30257143	     -3.41384984	     -5.86311811	     -3.26247852	      1.04066606	      0.93577009	      0.42822403	     30.07727093	     -1.90262953	     -7.93274190	     35.62538345	     35.62538345	      1.52967366	     -9.14307259	     -0.67487392	     10.79096997	     -7.16490181	     -9.85636605	     20.02993998	     20.02993998	     13.78119759	    -10.47079314	     -1.66617456	    -11.38546090	      5.09511778	      0.43652324	     -3.89772237	    -15.09942834	     -1.33851949	     26.27754404	     46.40496129	      0.00000000	      0.00000000	     17.47058611	    -17.03344871	     -1.29583211	     56.69419239	     45.89784428	      0.00000000	      0.00000000
     52.31592857	     -3.48853934	     -5.73498071	     -3.65398451	      1.03946754	      0.93533250	      0.42916823	     29.71041059	     -1.80579931	     -8.45352881	     31.90748825	     31.90748825	      1.02440700	     -7.41015098	     -1.88631194	     10.42579542	     -7.12993261	    -10.37786457	     19.90425115	     19.90425115	     13.95971467	    -10.26483718	     -2.01914053	    -11.55451350	      4.97826968	      0.09390628	     -4.27851890	    -14.76114619	     -4.25105299	     26.86233852	     46.58571381	      0.00000000	      0.00000000	     16.89998465	    -17.70892190	     -1.74528583	     60.84620186	     46.08524638	      0.00000000	      0.00000000
     52.32928571	     -3.59898709	     -5.65642915	     -4.00491233	      1.03838170	      0.93490632	      0.43022886	     29.31126553	     -1.60304171	     -8.93988974	     28.33132397	     28.33132397	      1.00313870	     -5.44472077	     -1.35462962	     10.10067029	     -7.11695473	    -10.68224370	     19.78228940	     19.78228940	     14.16791202	    -10.28809984	     -2.14070760	    -11.53004752	      4.95945195	      0.19598866	     -4.65802420	    -14.73402365	     -4.53845059	     26.73605431	     46.60613980	      0.00000000	      0.00000000	     17.70255686	    -17.77854478	     -1.88957696	     61.70787996	     46.13034591	      0.00000000	      0.00000000
     52.34264286	     -3.70551621	     -5.54234345	     -4.31523762	      1.03750587	      0.93441529	      0.43136952	     28.84882588	     -1.42863197	     -9.46124576	     24.95610013	     24.95610013	      0.98768713	     -3.34804604	     -0.64619359	      9.74549442	     -7.06052363	    -10.98765587	     19.61617801	     19.61617801	     14.36918313	    -10.24828873	     -2.28768962	    -11.48985791	      4.91790380	      0.25367598	     -5.03488319	    -14.68204650	     -4.85150946	     26.76216601	     46.62184880	      0.00000000	      0.00000000	     18.35832357	    -17.82972350	     -2.02160667	     62.74192730	     46.17412370	      0.00000000	      0.00000000
     52.35600000	     -3.78820940	     -5.34979745	     -4.60470265	      1.03681468	      0.93388269	      0.43257755	     28.49079147	     -1.41058857	    -10.12428340	     22.25349254	     22.25349254	      1.68458037	     -0.78039437	      1.78857205	      9.32220784	     -6.92127507	    -11.34411944	     19.37320661	     19.37320661	     14.46018772	    -10.17187211	     -2.72342809	    -11.49162392	      4.77723685	      0.17628743	     -5.43283623	    -14.31955124	     -6.98375439	     27.53031377	     46.71298862	      0.00000000	      0.00000000	     18.48646637	    -18.00525290	     -2.45035792	     64.91667047	     46.34501604	      0.00000000	      0.00000000
     52.36935714	     -3.86673551	     -5.21829053	     -4.82990410	      1.03639340	      0.93335365	      0.43397303	     27.97067995	     -1.22982654	    -10.55369584	     19.64343312	     19.64343312	      1.64269931	      0.87743539	      2.52889007	      8.89968989	     -6.83872940	    -11.56437127	     19.17051930	     19.17051930	     14.68250144	    -10.14776664	     -2.84738237	    -11.35236535	      4.71666816	      0.22696147	     -5.64823195	    -14.21248204	     -7.12834356	     27.49220318	     46.71865051	      0.00000000	      0.00000000	     19.13807928	    -17.95325351	     -2.51859627	     65.53715089	     46.37603636	      0.00000000	      0.00000000
     52.38271429	     -3.85597087	     -5.04678256	     -5.00757909	      1.03622131	      0.93290095	      0.43538853	     27.42621790	     -1.18325158	    -11.15351817	     17.68614488	     17.68614488	      1.86635287	      2.66191630	      3.43427890	      8.32783174	     -6.70184412	    -11.83337094	     18.87394493	     18.87394493	     14.87241132	     -9.99296547	     -3.04445482	    -11.34267353	      4.61221324	      0.30075755	     -5.84608385	    -14.06571796	     -7.39924693	     27.66951783	     46.72199522	      0.00000000	      0.00000000	     19.68063747	    -17.88362740	     -2.63518178	     66.40080367	     46.41741669	      0.00000000	      0.00000000
     52.39607143	     -3.89846149	     -4.87048666	     -5.15044155	      1.03625827	      0.93236766	      0.43691605	     27.09876587	     -1.20302557	    -11.78089954	     16.59196171	     16.59196171	      2.80402624	      4.23011224	      6.10406294	      7.77878534	     -6.55362768	    -12.03137565	     18.50355255	     18.50355255	     14.85040308	     -9.97820931	     -3.69551329	    -11.22635356	      4.52096870	      0.19499805	     -6.08486636	    -13.74337714	     -8.74121667	     28.54429656	     46.74186747	      0.00000000	      0.00000000	     19.79858955	    -17.85475117	     -3.04474604	     67.77266298	     46.55510338	      0.00000000	      0.00000000
     52.40942857	     -3.88873255	     -4.72203299	     -5.24515068	      1.03664824	      0.93190852	      0.43859913	     26.57135558	     -1.13531606	    -12.13549789	     15.67493328	     15.67493328	      2.91557458	      4.87372573	      6.34217920	      7.12506827	     -6.42940234	    -12.20464078	     18.10084925	     18.10084925	     15.06432023	     -9.80867584	     -3.78714317	    -11.05846229	      4.46314091	      0.23065760	     -6.11065095	    -13.58627223	     -8.83556813	     28.56925363	     46.74100479	      0.00000000	      0.00000000	     20.24721881	    -17.68619255	     -3.08447593	     68.17031395	     46.57949212	      0.00000000	      0.00000000
     52.42278571	     -3.81379958	     -4.56852263	     -5.31530884	      1.03739050	      0.93149885	      0.44038346	     25.99152116	     -1.12589379	    -12.52871519	     15.29124345	     15.29124345	      3.11192293	      5.38174235	      6.35760818	      6.32886310	     -6.28806408	    -12.40849130	     17.59332991	     17.59332991	     15.26395244	     -9.52238989	     -3.95419194	    -10.92491241	      4.41851461	      0.24026421	     -6.11419861	    -13.42290746	     -9.00649257	     28.76238269	     46.73701277	      0.00000000	      0.00000000	     20.53324066	    -17.50098986	     -3.18256292	     68.65743621	     46.61104781	      0.00000000	      0.00000000
